<?xml version="1.0" encoding="UTF-8" standalone="no"?>
<!DOCTYPE svg PUBLIC "-//W3C//DTD SVG 1.1//EN" "http://www.w3.org/Graphics/SVG/1.1/DTD/svg11.dtd">
<svg width="100%" height="100%" viewBox="0 0 241 100" version="1.1" xmlns="http://www.w3.org/2000/svg" xmlns:xlink="http://www.w3.org/1999/xlink" xml:space="preserve" xmlns:serif="http://www.serif.com/" style="fill-rule:evenodd;clip-rule:evenodd;">
    <rect x="0" y="0" width="241" height="100" style="fill:white;"/>
    <g id="Calque2">
        <g transform="matrix(0.923314,-0.384045,0.384045,0.923314,-5.29554,51.1611)">
            <path d="M139.42,32.948L139.537,48.598C139.54,49.014 139.118,49.248 138.803,49.004L125.469,38.68C125.154,38.436 125.204,37.914 125.555,37.773L138.774,32.447C139.082,32.323 139.418,32.583 139.42,32.948Z" style="fill:rgb(217,187,146);fill-rule:nonzero;stroke:black;stroke-width:0.01px;"/>
        </g>
        <g transform="matrix(0.923314,-0.384045,0.384045,0.923314,-5.29554,51.1611)">
            <path d="M122.902,33.556L144.1,50.134C144.42,50.384 144.357,50.919 143.992,51.046L136.927,53.518C136.786,53.568 136.63,53.54 136.506,53.443L122.679,42.63C122.556,42.533 122.479,42.379 122.473,42.215L122.167,33.978C122.151,33.553 122.582,33.306 122.902,33.556Z" style="fill:rgb(217,187,146);fill-rule:nonzero;stroke:black;stroke-width:0.01px;"/>
        </g>
    </g>
    <g id="Calque1">
        <path d="M44.502,50C44.502,50 69.337,41.064 105.193,40.759C141.049,40.455 146.486,49.228 158.536,49.103C170.586,48.978 174.592,41.841 189.543,40.759C189.69,40.749 189.543,100 189.543,100L44.502,100L44.502,50Z" style="fill:url(#_Linear1);stroke:black;stroke-opacity:0;stroke-width:1px;stroke-linecap:round;stroke-linejoin:round;stroke-miterlimit:1.5;"/>
    </g>
    <g id="titre">
        <g transform="matrix(1,0,0,1,11.461,15.7738)">
            <path d="M63.25,42.625L63.25,61L61.85,61L61.85,42.1C61.85,40.98 61.605,40.117 61.115,39.51C60.648,38.903 59.843,38.6 58.7,38.6L58.35,38.6L58.35,37.9L60.625,37.9C61.698,37.9 62.608,38.075 63.355,38.425C64.102,38.775 64.767,39.3 65.35,40L77.6,55.225L77.6,37.9L79,37.9L79,61.35L78.3,61.35L63.25,42.625ZM88.4,61.35C87.653,61.35 86.895,61.198 86.125,60.895C85.355,60.568 84.69,60.043 84.13,59.32C83.593,58.597 83.325,57.64 83.325,56.45C83.325,54.677 84.142,53.417 85.775,52.67C87.432,51.923 89.59,51.55 92.25,51.55L93.3,51.55C93.3,49.263 92.985,47.7 92.355,46.86C91.725,46.02 90.815,45.6 89.625,45.6C88.575,45.6 87.735,45.822 87.105,46.265C86.475,46.708 86.032,47.478 85.775,48.575L84.2,48.575C84.2,47.782 84.247,47.163 84.34,46.72C84.433,46.253 84.678,45.822 85.075,45.425C85.495,45.005 86.183,44.702 87.14,44.515C88.12,44.305 89.182,44.2 90.325,44.2C92.215,44.2 93.708,44.713 94.805,45.74C95.902,46.743 96.45,48.68 96.45,51.55L96.45,61L94.7,61L93.475,59.425L93.3,59.425C92.88,59.962 92.262,60.417 91.445,60.79C90.628,61.163 89.613,61.35 88.4,61.35ZM89.975,59.775C90.745,59.775 91.387,59.588 91.9,59.215C92.413,58.842 92.88,58.328 93.3,57.675L93.3,52.95L92.25,52.95C90.523,52.95 89.158,53.277 88.155,53.93C87.152,54.56 86.65,55.4 86.65,56.45C86.65,57.523 86.965,58.352 87.595,58.935C88.248,59.495 89.042,59.775 89.975,59.775ZM101.934,48.575C101.374,47.268 100.837,46.358 100.324,45.845C99.81,45.308 99.134,45.017 98.294,44.97L98.294,44.27C98.41,44.27 98.574,44.258 98.784,44.235C99.017,44.212 99.25,44.2 99.484,44.2C100.72,44.2 101.84,44.515 102.844,45.145C103.847,45.752 104.71,46.895 105.434,48.575L108.584,56.1L113.484,44.55L115.234,44.55L108.059,61.35L107.359,61.35L101.934,48.575ZM119.541,66.95C120.685,66.95 121.618,66.682 122.341,66.145C123.088,65.632 123.73,64.675 124.266,63.275L124.966,61.35L119.366,47.7C118.713,46.02 117.43,45.087 115.516,44.9L115.516,44.2L118.491,44.2C120.521,44.2 121.921,45.133 122.691,47L126.681,56.695L131.091,44.55L132.841,44.55L126.016,63.275C125.34,65.118 124.593,66.367 123.776,67.02C122.96,67.673 121.898,68 120.591,68L119.541,68L119.541,66.95Z" style="fill:white;fill-rule:nonzero;"/>
        </g>
        <g transform="matrix(1,0,0,1,9.127,7.80378)">
            <path d="M141.06,55.28C142.12,54.2 143.37,53.66 144.81,53.66C146.25,53.66 147.5,54.19 148.56,55.25C149.62,56.31 150.15,57.58 150.15,59.06L150.15,62.72C150.15,64.16 149.61,65.43 148.53,66.53C147.47,67.63 146.23,68.18 144.81,68.18C143.39,68.18 142.15,67.63 141.09,66.53C140.03,65.43 139.5,64.16 139.5,62.72L139.5,59.06C139.5,57.62 140.02,56.36 141.06,55.28ZM149.1,62.72L149.1,59.06C149.1,57.94 148.68,56.94 147.84,56.06C147,55.16 145.99,54.71 144.81,54.71C143.63,54.71 142.62,55.16 141.78,56.06C140.96,56.94 140.55,57.94 140.55,59.06L140.55,62.72C140.55,63.86 140.97,64.88 141.81,65.78C142.65,66.68 143.65,67.13 144.81,67.13C145.97,67.13 146.97,66.68 147.81,65.78C148.67,64.88 149.1,63.86 149.1,62.72ZM157.592,54.71C156.452,54.71 155.602,55.01 155.042,55.61C154.482,56.19 154.202,56.83 154.202,57.53C154.202,58.15 154.472,58.67 155.012,59.09C155.552,59.51 156.202,59.86 156.962,60.14C157.742,60.42 158.512,60.72 159.272,61.04C160.052,61.34 160.712,61.79 161.252,62.39C161.792,62.99 162.062,63.73 162.062,64.61C162.062,65.71 161.662,66.58 160.862,67.22C160.062,67.86 158.962,68.18 157.562,68.18C155.982,68.18 154.792,67.83 153.992,67.13C153.212,66.43 152.822,65.58 152.822,64.58C152.822,64.1 153.002,63.86 153.362,63.86C153.702,63.86 153.872,64.11 153.872,64.61C153.872,65.25 154.172,65.83 154.772,66.35C155.372,66.87 156.292,67.13 157.532,67.13C158.712,67.13 159.582,66.9 160.142,66.44C160.722,65.96 161.012,65.35 161.012,64.61C161.012,63.93 160.742,63.36 160.202,62.9C159.662,62.42 159.012,62.04 158.252,61.76L155.912,60.86C155.152,60.54 154.502,60.1 153.962,59.54C153.422,58.98 153.152,58.3 153.152,57.5C153.152,56.52 153.522,55.64 154.262,54.86C155.022,54.06 156.112,53.66 157.532,53.66C158.852,53.66 159.882,54.01 160.622,54.71C161.362,55.39 161.732,56.26 161.732,57.32C161.732,57.84 161.562,58.1 161.222,58.1C160.862,58.1 160.682,57.85 160.682,57.35C160.642,55.59 159.612,54.71 157.592,54.71Z" style="fill:rgb(37,86,100);fill-rule:nonzero;"/>
        </g>
    </g>
    <defs>
        <linearGradient id="_Linear1" x1="0" y1="0" x2="1" y2="0" gradientUnits="userSpaceOnUse" gradientTransform="matrix(4.67724e-15,-76.3851,31.1889,1.90977e-15,117.055,100)"><stop offset="0" style="stop-color:rgb(0,171,223);stop-opacity:1"/><stop offset="1" style="stop-color:rgb(53,255,251);stop-opacity:1"/></linearGradient>
    </defs>
</svg>
